<svg width="28" height="22" viewBox="0 0 28 22" fill="none" xmlns="http://www.w3.org/2000/svg">
<path d="M1 21V6C1 4.67392 1.53264 3.40215 2.48074 2.46447C3.42884 1.52678 4.71474 1 6.05556 1C7.39637 1 8.68227 1.52678 9.63037 2.46447C10.5785 3.40215 11.1111 4.67392 11.1111 6V21M1 12.4286H11.1111M27 11V21M16.8889 16C16.8889 17.3261 17.4215 18.5979 18.3696 19.5355C19.3177 20.4732 20.6036 21 21.9444 21C23.2853 21 24.5712 20.4732 25.5193 19.5355C26.4674 18.5979 27 17.3261 27 16C27 14.6739 26.4674 13.4021 25.5193 12.4645C24.5712 11.5268 23.2853 11 21.9444 11C20.6036 11 19.3177 11.5268 18.3696 12.4645C17.4215 13.4021 16.8889 14.6739 16.8889 16Z" stroke="#484C7B" stroke-width="2" stroke-linecap="round" stroke-linejoin="round"/>
</svg>
