<svg width="24" height="23" viewBox="0 0 24 23" fill="none" xmlns="http://www.w3.org/2000/svg">
<path d="M11.9994 22H23M15.6663 3.4703L19.3331 7.17624M17.3481 1.76804C17.8347 1.27627 18.4947 1 19.1828 1C19.8709 1 20.5309 1.27627 21.0174 1.76804C21.504 2.2598 21.7774 2.92678 21.7774 3.62224C21.7774 4.3177 21.504 4.98468 21.0174 5.47645L6.33774 20.3138C6.04695 20.6077 5.68751 20.8227 5.29268 20.9389L1.78227 21.9741C1.67709 22.0051 1.5656 22.0069 1.45947 21.9794C1.35334 21.952 1.25647 21.8962 1.179 21.8179C1.10153 21.7396 1.04631 21.6417 1.01912 21.5344C0.99193 21.4271 0.993769 21.3145 1.02445 21.2082L2.04872 17.6603C2.16389 17.2618 2.3766 16.8989 2.6672 16.6054L17.3481 1.76804Z" stroke="#484C7B" stroke-width="2" stroke-linecap="round" stroke-linejoin="round"/>
</svg>
