<svg width="23" height="20" viewBox="0 0 23 20" fill="none" xmlns="http://www.w3.org/2000/svg">
<path d="M5.39063 18.0455V2.90909H1.48243C1.06316 2.90909 0.710971 2.77273 0.425867 2.5C0.140763 2.22727 -0.0011904 1.87879 7.5183e-06 1.45455C0.00120543 1.0303 0.143158 0.681818 0.425867 0.409091C0.708575 0.136363 1.06076 0 1.48243 0H12.3984C12.8177 0 13.1621 0.136363 13.4316 0.409091C13.7012 0.681818 13.8359 1.0303 13.8359 1.45455C13.8359 1.87879 13.7012 2.22727 13.4316 2.5C13.1621 2.77273 12.8177 2.90909 12.3984 2.90909H8.44532V18.0455C8.44532 18.4697 8.29558 18.8261 7.9961 19.1145C7.69662 19.403 7.33724 19.5467 6.91797 19.5455C6.4987 19.5442 6.13933 19.4 5.83985 19.1127C5.54037 18.8255 5.39063 18.4697 5.39063 18.0455ZM16.6211 8.27273H15.498C15.1387 8.27273 14.832 8.14364 14.578 7.88545C14.3241 7.62727 14.1965 7.31697 14.1953 6.95455C14.1941 6.59212 14.3217 6.28182 14.578 6.02364C14.8344 5.76545 15.1411 5.63636 15.498 5.63636H16.6211V3.18182C16.6211 2.75758 16.7636 2.40182 17.0487 2.11455C17.3339 1.82727 17.6854 1.68303 18.1035 1.68182C18.5216 1.68061 18.8738 1.82485 19.1601 2.11455C19.4464 2.40424 19.5883 2.76 19.5859 3.18182V5.63636H21.6074C21.9668 5.63636 22.2741 5.76545 22.5292 6.02364C22.7844 6.28182 22.9113 6.59212 22.9102 6.95455C22.909 7.31697 22.7814 7.62788 22.5274 7.88727C22.2735 8.14667 21.9668 8.27515 21.6074 8.27273H19.5859V15C19.5859 15.697 19.7435 16.2424 20.0585 16.6364C20.3736 17.0303 20.8 17.2273 21.3379 17.2273H21.7422C22.0716 17.197 22.3639 17.3103 22.6191 17.5673C22.8742 17.8242 23.0012 18.1352 23 18.5C23 18.9242 22.888 19.2576 22.664 19.5C22.44 19.7424 22.1327 19.8939 21.7422 19.9545C21.5924 19.9848 21.4427 20 21.293 20H20.8437C19.526 20 18.4928 19.6133 17.7441 18.84C16.9954 18.0667 16.6211 16.9988 16.6211 15.6364V8.27273Z" fill="#484C7B"/>
</svg>
