<svg width="25" height="25" viewBox="0 0 25 25" fill="none" xmlns="http://www.w3.org/2000/svg">
<path fill-rule="evenodd" clip-rule="evenodd" d="M12.4395 0H12.5605C13.6058 0 14.4767 5.19808e-08 15.1674 0.0930233C15.8977 0.190698 16.557 0.406977 17.086 0.936047C17.6163 1.46628 17.8326 2.12558 17.9302 2.85465C18 3.36628 18.0174 3.97558 18.0221 4.68023C18.7756 4.70465 19.4477 4.75 20.0453 4.82907C21.4081 5.01279 22.5116 5.39884 23.3826 6.2686C24.2523 7.13953 24.6384 8.24302 24.8221 9.60581C25 10.9314 25 12.6233 25 14.7605V14.8907C25 17.0279 25 18.7209 24.8221 20.0453C24.6384 21.4081 24.2523 22.5116 23.3826 23.3826C22.5116 24.2523 21.4081 24.6384 20.0453 24.8221C18.7198 25 17.0279 25 14.8907 25H10.1093C7.97209 25 6.27907 25 4.95465 24.8221C3.59186 24.6384 2.48837 24.2523 1.61744 23.3826C0.747674 22.5116 0.361628 21.4081 0.177907 20.0453C0 18.7198 0 17.0279 0 14.8907V14.7605C0 12.6233 0 10.9302 0.177907 9.60581C0.361628 8.24302 0.747674 7.13953 1.61744 6.2686C2.48837 5.39884 3.59186 5.01279 4.95465 4.82907C5.62618 4.74592 6.30144 4.69625 6.97791 4.68023C6.98256 3.97558 7.00116 3.36628 7.06977 2.85465C7.16744 2.12558 7.38372 1.46628 7.91279 0.936047C8.44302 0.406977 9.10233 0.191861 9.8314 0.0930233C10.5233 5.19808e-08 11.3953 0 12.4395 0ZM8.72326 4.65349C9.16279 4.65116 9.62442 4.65116 10.1093 4.65116H14.8907C15.3756 4.65116 15.8372 4.65116 16.2767 4.65349C16.2721 3.9907 16.2558 3.4907 16.2023 3.08721C16.1291 2.55116 16.0047 2.32093 15.8535 2.16977C15.7023 2.0186 15.4721 1.89419 14.9349 1.82093C14.3744 1.74651 13.6209 1.74419 12.5 1.74419C11.3791 1.74419 10.6256 1.74651 10.064 1.82209C9.52791 1.89419 9.29767 2.0186 9.14651 2.17093C8.99535 2.32209 8.87093 2.55116 8.79767 3.08721C8.74419 3.48953 8.72791 3.98953 8.72326 4.65349ZM5.18605 6.55814C4.01628 6.71512 3.34186 7.01047 2.84884 7.50233C2.35814 7.99419 2.06279 8.6686 1.90581 9.83837C1.74535 11.0326 1.74302 12.6081 1.74302 14.8256C1.74302 17.043 1.74535 18.6186 1.90581 19.814C2.06279 20.9826 2.35814 21.657 2.85 22.1488C3.34186 22.6407 4.01628 22.936 5.18605 23.093C6.3814 23.2535 7.95581 23.2558 10.1733 23.2558H14.8244C17.0419 23.2558 18.6174 23.2535 19.8128 23.093C20.9814 22.936 21.6558 22.6407 22.1477 22.1488C22.6395 21.657 22.9349 20.9826 23.0919 19.8128C23.2523 18.6186 23.2547 17.043 23.2547 14.8256C23.2547 12.6081 23.2523 11.0337 23.0919 9.83721C22.9349 8.6686 22.6395 7.99419 22.1477 7.50233C21.6558 7.01047 20.9814 6.71512 19.8116 6.55814C18.6174 6.39767 17.0419 6.39535 14.8244 6.39535H10.1733C7.95581 6.39535 6.38256 6.39767 5.18605 6.55814Z" fill="#484C7B"/>
<path d="M18.3139 9.01167C18.3139 9.32006 18.1914 9.61582 17.9734 9.83388C17.7553 10.0519 17.4595 10.1745 17.1512 10.1745C16.8428 10.1745 16.547 10.0519 16.3289 9.83388C16.1109 9.61582 15.9884 9.32006 15.9884 9.01167C15.9884 8.70328 16.1109 8.40752 16.3289 8.18945C16.547 7.97139 16.8428 7.84888 17.1512 7.84888C17.4595 7.84888 17.7553 7.97139 17.9734 8.18945C18.1914 8.40752 18.3139 8.70328 18.3139 9.01167ZM9.01162 9.01167C9.01162 9.32006 8.88911 9.61582 8.67104 9.83388C8.45298 10.0519 8.15722 10.1745 7.84883 10.1745C7.54043 10.1745 7.24467 10.0519 7.02661 9.83388C6.80854 9.61582 6.68604 9.32006 6.68604 9.01167C6.68604 8.70328 6.80854 8.40752 7.02661 8.18945C7.24467 7.97139 7.54043 7.84888 7.84883 7.84888C8.15722 7.84888 8.45298 7.97139 8.67104 8.18945C8.88911 8.40752 9.01162 8.70328 9.01162 9.01167Z" fill="#484C7B"/>
</svg>
