<svg width="27" height="22" viewBox="0 0 27 22" fill="none" xmlns="http://www.w3.org/2000/svg">
<path d="M1 11C1 6.28625 1 3.92875 2.465 2.465C3.92875 1 6.28625 1 11 1H16C20.7137 1 23.0712 1 24.535 2.465C26 3.92875 26 6.28625 26 11C26 15.7137 26 18.0712 24.535 19.535C23.0712 21 20.7137 21 16 21H11C6.28625 21 3.92875 21 2.465 19.535C1 18.0712 1 15.7137 1 11Z" stroke="#484C7B" stroke-width="1.5"/>
<path d="M13.5 8.5V13.5M11.335 9.75L15.665 12.25M15.665 9.75L11.335 12.25M6.91625 8.5V13.5M4.75 9.75L9.08 12.25M9.08 9.75L4.75 12.25M20.085 8.5V13.5M17.92 9.75L22.25 12.25M22.25 9.75L17.9187 12.25" stroke="#484C7B" stroke-width="1.5" stroke-linecap="round"/>
</svg>
