<svg width="17" height="29" viewBox="0 0 17 29" fill="none" xmlns="http://www.w3.org/2000/svg">
<path d="M5.36603 9.61811V20.5442C5.37908 21.3431 5.71637 22.1051 6.30512 22.6656C6.89386 23.2262 7.68685 23.5403 8.51296 23.5403C9.33907 23.5403 10.1321 23.2262 10.7208 22.6656C11.3095 22.1051 11.6468 21.3431 11.6599 20.5442L11.6701 6.22295C11.6787 5.54006 11.547 4.86233 11.2827 4.22903C11.0185 3.59573 10.6269 3.01946 10.1307 2.53363C9.63448 2.0478 9.0435 1.66208 8.39201 1.39882C7.74052 1.13556 7.04149 1 6.33544 1C5.62938 1 4.93035 1.13556 4.27886 1.39882C3.62738 1.66208 3.03639 2.0478 2.54018 2.53363C2.04396 3.01946 1.65237 3.59573 1.38813 4.22903C1.12388 4.86233 0.99222 5.54006 1.00079 6.22295V20.6406C0.986401 21.602 1.16975 22.5566 1.54016 23.4488C1.91058 24.3411 2.46067 25.1532 3.15847 25.838C3.85626 26.5228 4.68783 27.0665 5.60483 27.4377C6.52182 27.8089 7.50595 28 8.5 28C9.49405 28 10.4782 27.8089 11.3952 27.4377C12.3122 27.0665 13.1437 26.5228 13.8415 25.838C14.5393 25.1532 15.0894 24.3411 15.4598 23.4488C15.8303 22.5566 16.0136 21.602 15.9992 20.6406V7.16782" stroke="#484C7B" stroke-width="2" stroke-miterlimit="10" stroke-linecap="round"/>
</svg>
