<svg width="17" height="28" viewBox="0 0 17 28" fill="none" xmlns="http://www.w3.org/2000/svg">
<path d="M13.6 1.7C14.0509 1.7 14.4833 1.87911 14.8021 2.19792C15.1209 2.51673 15.3 2.94913 15.3 3.4V23.8C15.3 24.2509 15.1209 24.6833 14.8021 25.0021C14.4833 25.3209 14.0509 25.5 13.6 25.5H3.4C2.94913 25.5 2.51673 25.3209 2.19792 25.0021C1.87911 24.6833 1.7 24.2509 1.7 23.8V3.4C1.7 2.94913 1.87911 2.51673 2.19792 2.19792C2.51673 1.87911 2.94913 1.7 3.4 1.7H13.6ZM3.4 0C2.49826 0 1.63346 0.358213 0.995837 0.995837C0.358213 1.63346 0 2.49826 0 3.4V23.8C0 24.7017 0.358213 25.5665 0.995837 26.2042C1.63346 26.8418 2.49826 27.2 3.4 27.2H13.6C14.5017 27.2 15.3665 26.8418 16.0042 26.2042C16.6418 25.5665 17 24.7017 17 23.8V3.4C17 2.49826 16.6418 1.63346 16.0042 0.995837C15.3665 0.358213 14.5017 0 13.6 0L3.4 0Z" fill="#484C7B"/>
<path d="M8.5 23.7999C8.95087 23.7999 9.38327 23.6208 9.70208 23.302C10.0209 22.9832 10.2 22.5508 10.2 22.0999C10.2 21.649 10.0209 21.2166 9.70208 20.8978C9.38327 20.579 8.95087 20.3999 8.5 20.3999C8.04913 20.3999 7.61673 20.579 7.29792 20.8978C6.97911 21.2166 6.8 21.649 6.8 22.0999C6.8 22.5508 6.97911 22.9832 7.29792 23.302C7.61673 23.6208 8.04913 23.7999 8.5 23.7999Z" fill="#484C7B"/>
</svg>
